<?xml version="1.0" encoding="UTF-8"?>
<svg id="Capa_2" data-name="Capa 2" xmlns="http://www.w3.org/2000/svg" viewBox="0 0 500 500">
  <defs>
    <style>
      .cls-1 {
        fill: #212427;
      }
    </style>
  </defs>
  <path class="cls-1" d="m355.22,198.4l57.33,69.18c1.44,1.73,1.37,4.43-.14,6.08l-120.43,131c-1.58,1.72-4.11,1.71-5.69-.02L82.26,179.33c-1.54-1.7-1.54-4.47-.01-6.18l96.42-107.32c.75-.84,1.78-1.31,2.84-1.31l215.45-.45c2.41,0,4.58-1.61,5.51-4.06l19.14-50.82c1.63-4.33-1.26-9.1-5.52-9.1L157.48,0c-1.08,0-2.13.48-2.89,1.34L1.14,173.6c-1.52,1.71-1.51,4.47.02,6.17l288.79,318.93c1.58,1.74,4.15,1.73,5.72-.01l203.18-225.95c1.52-1.69,1.53-4.44.02-6.15l-118.69-134.04c-.76-.86-1.79-1.34-2.87-1.34h-169.08c-1.09,0-2.13.49-2.89,1.37l-35.85,41.22c-1.49,1.71-1.47,4.44.05,6.12l119.77,133.18c1.58,1.75,4.16,1.75,5.73,0l36.18-40.35c1.53-1.71,1.52-4.48-.02-6.18l-52.97-58.35c-3.76-4.15-1.1-11.23,4.22-11.24l69.77-.03c1.14,0,2.22.53,2.99,1.46Z"/>
</svg>